# xmcd
#
# Track frame offsets:
#	150
#	12229
#	22433
#	37726
#	55301
#	66082
#	77928
#	87211
#	101635
#	116350
#	131031
#	140684
#	152278
#	164515
#
# Disc length: 2388 seconds
# Revision: 2
# Processed by: cddbd v1.5.2PL0 Copyright (c) Steve Scherf et al.
# Submitted via: dBpowerAMP V12.0
#
DISCID=b709520e
DTITLE=The Quebe Sisters - Timeless
DYEAR=2007
DGENRE=Country
TTITLE0=So Long to the Red River Valley
TTITLE1=Shame on You
TTITLE2=Take the 'A' Train
TTITLE3=Georgia on My Mind
TTITLE4=There's a Rainbow Over the Range
TTITLE5=Along the Navajo Trail
TTITLE6=Twin Guitar Special
TTITLE7=Tumbling Tumbleweed
TTITLE8=You Don't Care What Happens to Me
TTITLE9=Across the Alley from the Alamo
TTITLE10=Speed the Plow - The Maid Behind the Bar - Temperance
TTITLE11=Roly Poly
TTITLE12=Air Mail Special
TTITLE13=There's a Gold Mine in the Sky
EXTD=
EXTT0=
EXTT1=
EXTT2=
EXTT3=
EXTT4=
EXTT5=
EXTT6=
EXTT7=
EXTT8=
EXTT9=
EXTT10=
EXTT11=
EXTT12=
EXTT13=
PLAYORDER=
